<?xml version="1.0" encoding="UTF-8"?>
<svg width="132px" height="41px" viewBox="0 0 132 41" version="1.1" xmlns="http://www.w3.org/2000/svg" xmlns:xlink="http://www.w3.org/1999/xlink">
    <!-- Generator: Sketch 49.3 (51167) - http://www.bohemiancoding.com/sketch -->
    <title>Group</title>
    <desc>Created with Sketch.</desc>
    <defs></defs>
    <g id="Examples" stroke="none" stroke-width="1" fill="none" fill-rule="evenodd">
        <g id="Viasat_Homepage_Paid_Mobile" transform="translate(-45.000000, -2905.000000)" fill="#FFFFFF" fill-rule="nonzero">
            <g id="Group" transform="translate(45.000000, 2905.000000)">
                <g id="int_vsat_TM_4cp_grd_white-Copy-2">
                    <path d="M106.853952,11.6673474 C105.757894,11.9810615 104.901134,12.8393667 104.587985,13.9374011 L102.104485,22.5636053 L101.470015,20.3661933 C101.287264,19.4784053 100.62371,18.7678684 99.7516378,18.5261455 C98.8795654,18.2844226 97.9458121,18.5522145 97.3335358,19.219635 C96.7212594,19.8870556 96.5335539,20.8417258 96.8474427,21.6919047 L98.3157891,26.7405042 C98.6195336,27.7654856 99.559804,28.4684385 100.627075,28.4684385 C101.694346,28.4684385 102.634617,27.7654856 102.938361,26.7405042 L105.367478,18.2595834 L107.615317,26.0867287 C108.030431,27.4901427 109.317509,28.4528817 110.778606,28.4528817 C112.239703,28.4528817 113.526781,27.4901427 113.941896,26.0867287 L118.655106,9.63337922 L123.096401,25.1605468 C123.869697,27.4885201 126.337939,28.7914055 128.691859,28.1141635 C131.04578,27.4369215 132.447805,25.020529 131.870224,22.6362471 L126.286882,3.33171004 C125.73083,1.3608078 123.935332,0 121.890907,0 C119.846482,0 118.050984,1.3608078 117.494931,3.33171004 L112.691082,20.0937869 L110.878309,13.846599 C110.338955,12.1551664 108.561949,11.1928897 106.853952,11.6673474 Z" id="Shape"></path>
                    <path d="M93.627907,24.7961346 L93.627907,24.9018101 C93.627907,26.117078 93.3529527,27.1033825 91.2816301,27.1033825 C89.2103075,27.1033825 88.9353532,26.117078 88.9353532,24.9018101 L88.9353532,24.7961346 C88.9353532,23.5808666 89.2103075,22.5945622 91.2816301,22.5945622 C93.3529527,22.5945622 93.627907,23.5632541 93.627907,24.7961346 Z M87.4689301,40.1895288 C86.1849364,40.2522151 84.9210336,39.8641029 83.9128541,39.0975489 C82.6836317,37.8537147 82.0868733,36.1528642 82.2814585,34.447828 L82.2814585,26.8920315 L79.9535119,26.8920315 C78.7620431,26.8920315 78.4687585,26.6806806 78.4687585,24.8137472 C78.4687585,22.9468138 78.7620431,22.7354628 79.9535119,22.7354628 L82.2447979,22.7354628 L82.2447979,19.7413244 C82.2447979,18.3675432 82.5014219,17.9800664 84.8476989,17.9800664 C87.1939758,17.9800664 87.4505998,18.3147055 87.4505998,19.7413244 L87.4505998,33.8313877 C87.4505998,35.2932318 87.5972421,35.5926457 88.1104902,35.9272847 C88.6237383,36.2619237 90.2001431,36.0505727 91.4282724,35.9272847 C92.3814474,35.786384 92.4181079,36.1562482 92.674732,37.5300294 C92.931356,38.9038106 92.8946954,39.3793502 91.9598507,39.6083137 C90.4922848,39.9730883 88.9846422,40.1682074 87.4689301,40.1895288 Z M64.6293908,27.0681573 C63.6945461,27.2442831 63.6212249,26.874419 63.3279403,25.5182504 C63.0346557,24.1620818 63.0896466,23.651317 63.9511701,23.3695157 C65.9626175,22.8016171 68.0504164,22.522669 70.1468076,22.5417245 C72.6585792,22.3265478 75.0280884,23.6925874 76.0124999,25.9233397 C76.5949903,27.6248821 76.8010262,29.4245978 76.6173994,31.2071134 L76.6173994,37.5300294 C76.662774,38.3146232 76.161721,39.0331823 75.3892701,39.2912873 C73.5821782,40.0078327 71.6433692,40.3672339 69.6885504,40.3480421 C65.3076115,40.3480421 61.8615173,39.0975489 61.8615173,34.9409802 C61.8615173,30.7844115 64.8493543,29.4986933 69.0653206,29.4986933 C70.0078849,29.4916651 70.9501711,29.5328193 71.888185,29.6219813 L71.888185,28.6532895 C71.888185,27.1209951 71.0999826,26.2051409 68.9919994,26.2051409 C67.5129436,26.3613097 66.052362,26.6502436 64.6293908,27.0681573 Z M69.8168624,36.9664268 C70.5220637,36.9686208 71.2225085,36.8554583 71.888185,36.6317878 C71.9111057,36.5936424 71.9111057,36.5466452 71.888185,36.5084998 L71.888185,33.2325601 C71.8888439,33.1707942 71.8418306,33.1180929 71.7782033,33.109272 C71.0512286,32.9947157 70.3151942,32.9416746 69.5785687,32.9507588 C67.8371913,32.9507588 66.6640528,33.3734607 66.6640528,34.9762054 C66.6640528,36.5789501 67.818861,36.9664268 69.8168624,36.9664268 Z M58.030487,39.0270986 C56.6577765,39.9846834 54.9972849,40.4855887 53.3012726,40.4537175 C51.3804791,40.4094934 49.4774311,40.088906 47.6555438,39.5026383 C46.7023688,39.2032244 46.7023688,38.9566483 46.9223323,37.5652545 C47.1422957,36.1738608 47.288938,35.5926457 48.1687919,35.8039966 C49.7403781,36.2185313 51.3477756,36.4955911 52.9713274,36.6317878 C53.9794933,36.6317878 54.8043562,36.2443111 54.9509986,35.2051689 C55.0976409,34.1660268 54.0711447,33.443911 52.1464644,33.0035965 C49.9284995,32.4047688 47.0139837,31.3832392 46.904002,27.7198228 C46.904002,24.8313598 49.1586274,22.5417245 53.007988,22.5417245 C54.7987373,22.5165275 56.5799373,22.7968012 58.2687807,23.3695157 C59.1852952,23.6160918 59.2036255,24.109244 58.8920105,25.4654126 C58.5803956,26.8215812 58.5254048,27.2266705 57.5905601,27.0153196 C56.2432126,26.6053764 54.8424258,26.3800648 53.4295846,26.3460416 C52.6597125,26.3460416 51.798189,26.7511309 51.798189,27.6317599 C51.798189,28.5123888 52.9713274,28.9350907 54.1994567,29.3930178 C55.6517393,29.7946763 57.0218242,30.4320479 58.2504505,31.2775638 C59.3211536,32.1143325 59.9188766,33.3869726 59.8635158,34.7120167 C60.018479,36.3474354 59.3427463,37.9542269 58.0488173,39.0270986 L58.030487,39.0270986 Z M31.9281564,27.0681573 C30.9933117,27.2442831 30.9199905,26.874419 30.6267059,25.5182504 C30.3334213,24.1620818 30.3334213,23.651317 31.268266,23.4223534 C33.267015,22.8519268 35.3422158,22.5670771 37.4272429,22.5769496 C39.9390144,22.3617729 42.3085236,23.7278126 43.2929352,25.9585648 C43.8754256,27.6601072 44.0814615,29.459823 43.8978347,31.2423386 L43.8978347,37.5652545 C43.9432093,38.3498484 43.4421563,39.0684075 42.6697054,39.3265125 C40.8626135,40.0430578 38.9238045,40.4024591 36.9689857,40.3832672 C32.5880468,40.3832672 29.1419526,39.1327741 29.1419526,34.9762054 C29.1419526,30.8196367 32.1297896,29.5339184 36.3457559,29.5339184 C37.3198875,29.5412275 38.292863,29.600025 39.2602717,29.7100442 L39.2602717,28.6532895 C39.2602717,27.1209951 38.4720693,26.2051409 36.3640862,26.2051409 C34.8602952,26.3569336 33.3749541,26.6459088 31.9281564,27.0681573 Z M37.115628,36.9664268 C37.8208292,36.9686208 38.5212741,36.8554583 39.1869506,36.6317878 C39.2098713,36.5936424 39.2098713,36.5466452 39.1869506,36.5084998 L39.1869506,33.2325601 C39.1876094,33.1707942 39.1405962,33.1180929 39.0769688,33.109272 C38.3499942,32.9947157 37.6139598,32.9416746 36.8773342,32.9507588 C35.1359568,32.9507588 33.9628184,33.3734607 33.9628184,34.9762054 C33.9628184,36.5789501 35.0992963,36.9664268 37.0972977,36.9664268 L37.115628,36.9664268 Z M23.5328843,40.1895288 C21.1866074,40.1895288 20.9299834,39.8548898 20.9299834,38.4282709 L20.9299834,24.4967208 C20.9299834,23.1229396 21.1866074,22.7354628 23.5328843,22.7354628 C25.8791612,22.7354628 26.1357853,23.0701018 26.1357853,24.4967208 L26.1357853,38.4811087 C26.117455,39.8548898 25.8608309,40.1895288 23.514554,40.1895288 L23.5328843,40.1895288 Z M16.5673747,18.0857419 C14.3860704,18.0857419 14.0561252,18.4203809 13.7078498,19.8469998 L9.47355315,35.0290431 L5.23925654,19.8469998 C4.87265077,18.4732187 4.56103587,18.0857419 2.37973156,18.0857419 C0.198427242,18.0857419 -0.241499678,18.4203809 0.1067758,19.8469998 L5.69751375,38.5867841 C6.17410125,39.9605653 7.10894595,40.3480421 9.45522286,40.3480421 C11.8014998,40.3480421 12.7363445,40.0134031 13.212932,38.5867841 L18.8036699,19.8469998 C19.0969545,18.3675432 18.7303488,18.0857419 16.5673747,18.0857419 Z" id="Shape"></path>
                    <path d="M94.1299717,40.4551495 L94.1299717,39.2267816 L93.627907,39.2267816 L93.627907,38.9703092 L94.9763095,38.9703092 L94.9763095,39.2267816 L94.4599,39.2267816 L94.4599,40.4551495 L94.1299717,40.4551495 Z M95.1914801,40.4551495 L95.1914801,38.9568106 L95.5644425,38.9568106 L95.8083025,39.5102511 L95.9517496,39.8882105 L96.0951967,39.5102511 L96.324712,38.9568106 L96.6976744,38.9568106 L96.6976744,40.4551495 L96.4107803,40.4551495 L96.4107803,39.7937206 L96.4107803,39.2807758 L96.0378179,40.2121756 L95.836992,40.2121756 L95.4640296,39.2807758 L95.4640296,39.7937206 L95.4640296,40.4551495 L95.1914801,40.4551495 Z" id="Shape"></path>
                </g>
            </g>
        </g>
    </g>
</svg>